<?xml version="1.0" encoding="iso-8859-1"?>
<!-- Uploaded to: SVG Repo, www.svgrepo.com, Generator: SVG Repo Mixer Tools -->
<!DOCTYPE svg PUBLIC "-//W3C//DTD SVG 1.1//EN" "http://www.w3.org/Graphics/SVG/1.1/DTD/svg11.dtd">
<svg fill="#000000" version="1.1" id="Capa_1" xmlns="http://www.w3.org/2000/svg" xmlns:xlink="http://www.w3.org/1999/xlink" 
	 width="800px" height="800px" viewBox="0 0 382.77 382.77"
	 xml:space="preserve">
<g>
	<g>
		<path d="M375.328,137.133c-0.611-3.672-4.896-3.672-5.508,0c-3.06,26.928-4.284,56.304-3.672,85.68
			c-39.168-4.284-51.408,42.84-42.228,76.5c-0.612,5.508,1.836,11.628,6.12,15.912c9.18,9.18,23.867,9.18,35.495,6.12
			c4.896-1.225,8.568-3.061,10.404-5.508c2.448,1.224,6.12,0,6.12-3.061C384.508,255.249,380.224,193.437,375.328,137.133z
			 M336.16,257.696c2.448-8.567,6.12-14.076,11.017-18.359c-4.284,5.508-7.956,11.628-10.404,18.359
			C336.772,257.085,336.772,257.696,336.16,257.696z"/>
		<path d="M199.684,154.269c1.224-7.956,1.836-17.136,1.836-25.704c7.956-1.836,16.524-5.508,21.42-11.628
			c3.672-4.896,5.508-11.628,3.672-17.136c0.612,0,0.612,0,1.225,0c4.283-1.224,10.403-3.672,9.792-8.568
			c0-1.224-1.225-3.06-2.448-3.06c-3.672-1.224-6.12,1.224-9.18,2.448c-1.225,0.611-2.448,0.611-3.673,1.224
			c1.225-5.508,1.836-10.404,2.448-15.912c4.896-0.612,8.568-5.508,9.181-10.404c0.611-6.119-3.673-12.239-9.181-15.3h-0.611
			c-0.612-1.224-2.448-1.224-3.673,0c-4.283,4.284-8.567,10.404-7.344,16.524c0.612,3.672,3.061,6.731,5.508,8.567
			c-0.611,5.509-0.611,11.629-0.611,17.748c-1.225,0-1.836,0-3.061-0.611c-4.896-1.225-6.731,6.12-1.836,7.344
			c1.225,0.612,2.448,0.612,3.672,0.612c0,4.896,0,9.18-4.284,12.852c-3.06,2.448-6.731,4.284-11.016,5.508
			c-0.612-5.508-1.224-11.016-1.836-16.523c3.06-1.225,5.508-3.672,6.12-7.956c0-2.448-3.061-4.896-4.896-3.672
			c-1.224,0.611-1.836,1.224-3.06,1.836l0.612-0.612c0-4.896,0-9.792,0-15.3c1.224-0.612,2.447-1.836,3.06-2.448
			c3.672-4.896,3.061-14.076-1.224-18.972c0-0.612-0.612-1.836-1.836-1.836c-6.12-1.836-11.016,2.448-12.852,7.956
			c-1.836,4.896-3.06,12.852,2.448,16.523c1.224,0.612,2.448,1.225,4.284,1.225c-0.612,4.896,0,9.792,2.448,14.688
			c0,0.612,0.611,0.612,0.611,0.612c-1.224,0-3.06,0.612-3.671,1.224c-1.836,0-3.06-0.611-4.284-1.224
			c-3.06-2.448-6.732,2.448-4.284,5.508c1.836,1.836,4.284,3.061,6.732,3.672c0,5.508,0,11.628,0,17.748
			c-7.344-0.612-14.688-3.672-17.136-11.016c1.224-0.612,2.448-1.225,3.06-2.448c2.448-3.06,0.612-6.732-3.06-6.732
			c-1.224,0-1.836,0-3.06,0.612c0-3.672,0-7.344,0.612-11.016s1.836-6.732,1.224-10.404c2.448-1.224,4.896-4.284,6.12-6.732
			c2.448-6.119-0.612-13.464-4.896-18.359c-1.836-2.448-5.508-1.225-5.508,1.224c-4.284,3.672-9.792,7.344-9.792,13.464
			c0,4.284,1.836,9.181,6.12,10.404c-1.224,3.061-0.612,6.732-0.612,9.792c0,3.672,0.612,7.956,1.224,11.628
			c-1.836,0-3.672-0.612-4.896-1.224c-2.448-1.225-4.896,1.836-3.06,4.284c1.836,2.447,6.12,4.896,9.792,5.508
			c1.224,12.24,12.24,19.584,24.48,20.808c0.611,8.568,1.224,17.136,1.835,25.704c-4.284,0.612-8.568,0.612-12.24,1.224
			c-30.6,2.448-67.32,10.404-83.844,39.168c-20.808,36.108-17.136,91.188-4.896,128.521c0.612,1.224,2.448,1.836,3.06,0.611
			c4.284,3.673,3.672,3.061,11.628,3.673c2.448,0,5.508-1.225,7.956-1.837c15.912-1.836,21.42,2.448,37.944,4.896
			c19.584,3.06,24.48-9.18,42.84-12.852c12.239-2.448,22.031,7.956,33.659,9.18c7.956,0.612,9.792-2.448,17.137-3.672
			c18.972-3.061,42.228,12.852,57.527-3.061c0.612-0.611,1.225-1.224,1.836-2.447c3.673-41.616,5.509-100.98-15.3-139.536
			C274.348,153.657,231.508,152.433,199.684,154.269z M297.604,314.612l-0.612,0.612c-7.956,9.18-36.107,0-47.735,0
			c-9.792,6.12-20.809,6.731-32.437,1.224c-2.447-1.224-5.508-2.447-7.956-3.672c-7.956-1.224-6.12-1.836-12.239-1.224
			c-6.732,0.612-11.016,4.896-17.136,7.344c-11.628,4.896-20.808,4.284-32.436,2.448c-11.016-1.836-6.12-3.672-17.748-3.672
			s-25.092,7.956-36.108,2.447l0,0c-1.224-16.523-2.448-33.659-2.448-50.184c6.732,6.12,17.136,8.568,26.316,6.12
			c10.404-2.448,20.196-10.404,25.704-19.584c4.284,9.18,14.688,15.912,25.704,15.3c14.076-0.612,26.927-11.016,32.435-23.868
			c3.061,9.792,13.465,17.137,24.48,18.36c11.016,0.612,20.196-6.12,24.479-15.912c3.673,7.344,9.792,12.852,18.36,14.688
			c8.568,1.836,18.972-1.225,25.704-7.345C295.768,276.057,295.768,295.028,297.604,314.612z"/>
		<path d="M40.564,238.725c-5.508-4.896-20.196-8.568-27.54-3.672c-0.612-29.376-1.224-58.752-4.284-87.516
			c0-2.448-3.672-3.061-4.284-0.612c-7.956,56.916-3.672,117.504,0.612,174.42c-0.612,2.448,0,4.896,3.06,6.12
			c11.016,4.896,25.092,7.956,36.72,2.448c4.896-2.448,7.956-5.509,9.18-9.792c0.612-0.612,1.836-1.225,1.836-2.448
			c3.06-14.076,0.612-29.376-1.836-43.452C52.192,262.593,49.745,247.904,40.564,238.725z M14.249,316.448c0-1.224,0-1.836,0-3.06
			c0.612,1.224,1.224,2.448,1.836,3.06C15.473,316.448,14.86,316.448,14.249,316.448z"/>
	</g>
</g>
</svg>