<?xml version="1.0" ?>
<!DOCTYPE svg  PUBLIC '-//W3C//DTD SVG 1.1//EN'  'http://www.w3.org/Graphics/SVG/1.1/DTD/svg11.dtd'>
<!-- Uploaded to: SVG Repo, www.svgrepo.com, Generator: SVG Repo Mixer Tools -->
<svg width="800px" height="800px" viewBox="0 0 512 512" version="1.1" xml:space="preserve" xmlns="http://www.w3.org/2000/svg" xmlns:xlink="http://www.w3.org/1999/xlink">
<g id="_x35_88_x2C__Moon_x2C__night_x2C__Love_x2C__Romantic_night_x2C_">
<g>
<path d="M260.53,70.245c7.51,0,13.59,6.09,13.59,13.6c0,7.5-6.08,13.59-13.59,13.59    s-13.59-6.09-13.59-13.59C246.94,76.335,253.021,70.245,260.53,70.245z" style="fill:#FFD55E;"/>
<path d="M251.673,93.345c0-7.51,6.079-13.6,13.59-13.6c3.368,0,6.441,1.231,8.815,3.26    c-0.437-7.117-6.322-12.76-13.548-12.76c-7.51,0-13.59,6.09-13.59,13.6c0,4.136,1.855,7.837,4.774,10.331    C251.697,93.9,251.673,93.625,251.673,93.345z" style="fill:#E5BA4E;"/>
<path d="M400.98,188.045c10.01,0,18.119,8.11,18.119,18.12c0,10.01-8.109,18.12-18.119,18.12    c-10.011,0-18.12-8.11-18.12-18.12C382.86,196.155,390.97,188.045,400.98,188.045z" style="fill:#FFD55E;"/>
<path d="M390.11,216.946c0-10.01,8.109-18.12,18.12-18.12c3.874,0,7.456,1.225,10.4,3.295    c-1.838-8.059-9.033-14.076-17.65-14.076c-10.011,0-18.12,8.11-18.12,18.12c0,6.136,3.055,11.547,7.719,14.825    C390.282,219.688,390.11,218.338,390.11,216.946z" style="fill:#E5BA4E;"/>
<path d="M363.35,260.745c8.57,6.44,10.74,18.01,4.851,25.86c-10.66,14.22-32.25,10.67-58.41,13.26    c-4.84-25.84-14.271-45.56-3.6-59.78c5.88-7.84,17.6-9.01,26.159-2.59c7.75,5.82,8.96,12.28,7.5,22.29    C349.06,255.585,355.6,254.935,363.35,260.745z" style="fill:#EF3E5C;"/>
<g>
<g>
<g>
<path d="M317.537,249.835c4.748-6.331,13.304-8.306,20.929-5.454c-1.272-2.482-3.243-4.729-6.116-6.886       c-8.56-6.42-20.279-5.25-26.159,2.59c-10.671,14.22-1.24,33.94,3.6,59.78c3.108-0.308,6.15-0.527,9.12-0.702       C314.057,278.386,308.354,262.072,317.537,249.835z" style="fill:#E42A53;"/>
</g>
</g>
</g>
<path d="M312.61,133.675c13.779,0,24.939,10.24,24.939,22.85c0,22.85-24.939,35.86-49.85,58.7    c-24.91-22.84-49.82-35.85-49.82-58.7c0-12.61,11.16-22.85,24.91-22.85c12.45,0,18.68,5.71,24.91,17.14    C293.93,139.385,300.16,133.675,312.61,133.675z" style="fill:#EF3E5C;"/>
<g>
<g>
<g>
<path d="M251.471,159.705c0-12.468,10.911-22.611,24.446-22.839c-3.553-2.123-7.76-3.19-13.127-3.19       c-13.75,0-24.91,10.24-24.91,22.85c0,22.85,24.91,35.86,49.82,58.7c1.65-1.513,3.301-2.981,4.944-4.414       C270.928,192.411,251.471,179.898,251.471,159.705z" style="fill:#E42A53;"/>
</g>
</g>
</g>
<path d="M355.67,369.275c19.59,0,38.4-3.28,55.94-9.311c-30.33,49.08-84.61,81.79-146.551,81.79    c-95.079,0-172.159-77.08-172.159-172.16c0-75.5,48.6-139.64,116.22-162.859c-16.229,26.27-25.61,57.22-25.61,90.37    C183.51,292.186,260.59,369.275,355.67,369.275z" style="fill:#FFD55E;"/>
<g>
<path d="M110.9,273.38c0-65.215,36.265-121.949,89.724-151.162c2.573-5.318,5.409-10.486,8.496-15.483     C141.5,129.955,92.9,194.095,92.9,269.595c0,86.08,63.18,157.404,145.695,170.136C165.068,420.126,110.9,353.083,110.9,273.38z" style="fill:#E5BA4E;"/>
</g>
<path d="M262.31,410.755c-77.284,0-140.159-62.876-140.159-140.16c0-2.762,2.238-5,5-5c2.761,0,5,2.238,5,5    c0,71.771,58.389,130.16,130.159,130.16c2.762,0,5,2.238,5,5S265.071,410.755,262.31,410.755z" style="fill:#E5BA4E;"/>
</g>
</g>
<g id="Layer_1"/>
</svg>